<svg id="Layer_1" data-name="Layer 1" xmlns="http://www.w3.org/2000/svg" viewBox="0 0 226.07 59.57"><path d="M247.8,85.87A5.88,5.88,0,1,1,242,80.15,5.76,5.76,0,0,1,247.8,85.87Zm-10.28,0A4.45,4.45,0,0,0,242,90.44a4.39,4.39,0,0,0,4.36-4.54,4.41,4.41,0,1,0-8.82,0Zm3.52,3h-1.33V83.12a14,14,0,0,1,2.19-.18,3.11,3.11,0,0,1,2,.45,1.45,1.45,0,0,1,.59,1.22A1.47,1.47,0,0,1,243.27,86V86c.56.18.83.63,1,1.4a4.71,4.71,0,0,0,.42,1.39h-1.4a4.22,4.22,0,0,1-.45-1.39c-.1-.6-.46-.88-1.19-.88H241Zm0-3.21h.63c.73,0,1.32-.24,1.32-.83s-.38-.87-1.22-.87a3.72,3.72,0,0,0-.73.06Z" transform="translate(-30.97 -33.21)"/><path d="M205.22,38.19c-10.83-3.76-23.18-2.61-33,.43l5.38,35.19-23.13-37.7-23,45.63A387.62,387.62,0,0,1,122,36.55L102.25,69.42,80.39,34.66,76.71,70.11c-.14-.37-.24-.58-.24-.58v-.11c-.21-.45-.53-1-.7-1.32C72.6,62.38,62,59,54.43,56.43,35.36,49.9,41.19,43.19,51.52,41.59c7.21-1.13,15.4.17,20.54,3.38l2.64-7.7C60.28,29.68,28.25,31.8,33.44,51.73c3,11.52,27.29,13.17,33,19.9a9.45,9.45,0,0,1,1.45,2.1A4.86,4.86,0,0,1,68,77.29a8.19,8.19,0,0,1-.31,1.2,6.72,6.72,0,0,1-.6,1c-3.68,4.65-11.06,4.83-17.83,4-7.75-.94-14.68-4.76-15.08-5.66L31,86.05c12.25,6.62,35.51,10.53,44.18-1.66l.09-.13-.81,7.83,9.21-.16,2.84-32.11L102.67,85.4l15.11-25.58s1.61,6.63,4.53,18.79a122.49,122.49,0,0,0,4,14.18l7.93-.62,7.84-15.78h28l10.46,15.77h8.66l-4.65-27.53c5.75,8,21.65,18.58,34.16,23l-.83,4.77,9.05.21,8-47,19.15.22,3-7.7Zm-59.31,30.5,9.21-18.55L165,68.69Zm37-14.33L181.3,44c5.51-3.3,23.24-1.31,21.26,4.19S183.3,56,182.93,54.36Zm37.2,25.8c-10.93-3.87-27.73-16.48-28.35-19.1,6.17-.47,19.36-4,17.94-15.27l15.75.1Z" transform="translate(-30.97 -33.21)"/><path d="M97.17,57.86" transform="translate(-30.97 -33.21)"/><path d="M97.17,57.86" transform="translate(-30.97 -33.21)"/><path d="M104.11,69.42" transform="translate(-30.97 -33.21)"/></svg>